<svg id="svg" fill="#4361ee" stroke="#4361ee" width="52" height="52" version="1.1" viewBox="144 144 512 512" xmlns="http://www.w3.org/2000/svg">
    <g id="IconSvg_bgCarrier" stroke-width="0"></g>
    <g id="IconSvg_tracerCarrier" stroke-linecap="round" stroke-linejoin="round" stroke="#CCCCCC" stroke-width="0">
      <g xmlns="http://www.w3.org/2000/svg">
  <path d="m479.04 377.56c3.4648 0 6.5859-2.0859 7.9102-5.2852 1.3242-3.1992 0.59375-6.8789-1.8555-9.3281-2.4492-2.4492-6.1328-3.1797-9.332-1.8555-3.1953 1.3242-5.2812 4.4453-5.2812 7.9102 0 4.7266 3.832 8.5586 8.5586 8.5586z"></path>
  <path d="m454.47 362.96c3.3438 3.3398 3.3438 8.7617 0 12.105s-8.7617 3.3438-12.105 0-3.3438-8.7656 0-12.105c3.3438-3.3438 8.7617-3.3438 12.105 0"></path>
  <path d="m417.78 377.56c3.4609 0.003906 6.5859-2.0781 7.9141-5.2773 1.3281-3.1992 0.59766-6.8828-1.8477-9.332-2.4492-2.4492-6.1328-3.1836-9.332-1.8594s-5.2891 4.4453-5.2891 7.9102c0 4.7227 3.8281 8.5547 8.5547 8.5586z"></path>
  <path d="m408.65 474.22-26.566-3.8555-0.003906-0.003907c-0.78906-0.11328-1.4766-0.60938-1.8281-1.3281l-11.875-24.059h-0.003906c-2.2266-4.4805-6.8008-7.3164-11.805-7.3164-5.0078 0-9.582 2.8359-11.809 7.3164l-11.875 24.059h-0.003906c-0.35547 0.71875-1.0391 1.2148-1.8281 1.3281l-26.566 3.8555-0.003906 0.003906c-4.9648 0.72266-9.0938 4.2031-10.641 8.9766-1.5508 4.7734-0.25391 10.016 3.3398 13.516l19.207 18.695v0.003906c0.57422 0.55859 0.83984 1.3633 0.71094 2.1523l-4.5469 26.441c-0.85938 4.9492 1.1719 9.9609 5.2383 12.914 4.0625 2.9531 9.457 3.3398 13.898 0.98828l23.754-12.488v0.003906c0.70703-0.375 1.5508-0.375 2.2539 0l23.754 12.488v-0.003906c4.4453 2.3359 9.8281 1.9453 13.887-1.0039 4.0586-2.9531 6.0938-7.9531 5.2422-12.898l-4.5156-26.41c-0.12891-0.78906 0.12891-1.5938 0.69922-2.1562l19.219-18.695c3.5938-3.5039 4.8906-8.7422 3.3398-13.516-1.5508-4.7773-5.6758-8.2578-10.645-8.9805zm-0.20703 14.762-19.219 18.695c-3.1016 3.0352-4.5195 7.3984-3.7891 11.68l4.5352 26.441 0.003906-0.003906c0.16016 0.91406-0.21094 1.8398-0.96094 2.3828-0.75 0.54297-1.7461 0.61328-2.5625 0.17578l-23.754-12.477c-3.8398-2.0273-8.4336-2.0273-12.27 0l-23.754 12.477c-0.82031 0.4375-1.8125 0.36719-2.5625-0.17578-0.75-0.54297-1.125-1.4688-0.96094-2.3828l4.5352-26.449c0.73047-4.2773-0.69141-8.6406-3.7969-11.668l-19.207-18.695v-0.003906c-0.67188-0.64062-0.91406-1.6094-0.625-2.4922 0.28516-0.88281 1.0508-1.5234 1.9727-1.6484l26.566-3.8672c4.2812-0.61719 7.9883-3.3008 9.9102-7.1758l11.875-24.059c0.41406-0.82031 1.2578-1.3398 2.1797-1.3398s1.7656 0.51953 2.1797 1.3398l11.879 24.059c1.918 3.8906 5.6328 6.5859 9.9258 7.2031l26.566 3.8672h0.003906c0.91797 0.12891 1.6836 0.76953 1.9727 1.6523 0.28516 0.87891 0.042968 1.8477-0.625 2.4922z"></path>
  <path d="m585.65 205.93h-284.43c-4.668 0.003906-9.1406 1.8633-12.441 5.1602-3.3008 3.3008-5.1562 7.7773-5.1641 12.445v112.66h-69.262c-4.668 0.003907-9.1445 1.8633-12.445 5.1602-3.3047 3.3008-5.1602 7.7773-5.168 12.445v222.66c0.003906 4.668 1.8633 9.1445 5.1641 12.445 3.3008 3.3008 7.7812 5.1562 12.449 5.1562h284.43c4.668 0 9.1445-1.8555 12.449-5.1562 3.3008-3.3008 5.1602-7.7773 5.1641-12.445v-112.66h69.266-0.003906c4.6602-0.003906 9.1289-1.8555 12.43-5.1445s5.1641-7.75 5.1875-12.41v-222.71c-0.007813-4.6719-1.8633-9.1484-5.168-12.449-3.3008-3.2969-7.7773-5.1523-12.449-5.1562zm-284.43 10.754h284.43c3.8047 0 6.8906 3.0859 6.8906 6.8906v38.762h-298.15v-38.801c0.019531-3.7695 3.0625-6.8164 6.8281-6.8516zm-86.867 130.26h284.43c3.8047 0 6.8867 3.0859 6.8867 6.8906v38.762h-298.15v-38.801c0.019532-3.7695 3.0703-6.8242 6.8398-6.8516zm291.27 229.51v0.003907c0 1.8242-0.72656 3.5781-2.0195 4.8711-1.293 1.2891-3.043 2.0156-4.8711 2.0156h-284.38c-3.8047 0-6.8906-3.082-6.8906-6.8867v-173.18h298.15zm80.02-123.41-69.246 0.003906v-99.246c-0.007813-4.668-1.8672-9.1445-5.168-12.445-3.3008-3.2969-7.7773-5.1562-12.445-5.1602h-204.41v-63.133h298.15v173.18c-0.050781 3.7617-3.1055 6.7891-6.8711 6.8008z"></path>
  <path d="m568.42 230.54c4.5195 1.3867 7.0586 6.1758 5.6719 10.695-1.3867 4.5195-6.1758 7.0586-10.695 5.6719-4.5195-1.3867-7.0586-6.1758-5.6719-10.695 1.3867-4.5195 6.1758-7.0586 10.695-5.6719"></path>
  <path d="m535.29 247.3c3.4609 0 6.5859-2.0859 7.9102-5.2852s0.58984-6.8789-1.8555-9.3281c-2.4492-2.4492-6.1328-3.1797-9.332-1.8555s-5.2852 4.4453-5.2852 7.9062c0 4.7305 3.8359 8.5625 8.5625 8.5625z"></path>
  <path d="m504.66 247.3c3.4648 0 6.5859-2.0859 7.9102-5.2852 1.3242-3.1992 0.59375-6.8789-1.8555-9.3281-2.4492-2.4492-6.1328-3.1797-9.3281-1.8555-3.1992 1.3242-5.2852 4.4453-5.2852 7.9062 0 4.7305 3.832 8.5625 8.5586 8.5625z"></path>
 </g>

      </g>
     <g id="IconSvg_iconCarrier">
      <g xmlns="http://www.w3.org/2000/svg">
  <path d="m479.04 377.56c3.4648 0 6.5859-2.0859 7.9102-5.2852 1.3242-3.1992 0.59375-6.8789-1.8555-9.3281-2.4492-2.4492-6.1328-3.1797-9.332-1.8555-3.1953 1.3242-5.2812 4.4453-5.2812 7.9102 0 4.7266 3.832 8.5586 8.5586 8.5586z"></path>
  <path d="m454.47 362.96c3.3438 3.3398 3.3438 8.7617 0 12.105s-8.7617 3.3438-12.105 0-3.3438-8.7656 0-12.105c3.3438-3.3438 8.7617-3.3438 12.105 0"></path>
  <path d="m417.78 377.56c3.4609 0.003906 6.5859-2.0781 7.9141-5.2773 1.3281-3.1992 0.59766-6.8828-1.8477-9.332-2.4492-2.4492-6.1328-3.1836-9.332-1.8594s-5.2891 4.4453-5.2891 7.9102c0 4.7227 3.8281 8.5547 8.5547 8.5586z"></path>
  <path d="m408.65 474.22-26.566-3.8555-0.003906-0.003907c-0.78906-0.11328-1.4766-0.60938-1.8281-1.3281l-11.875-24.059h-0.003906c-2.2266-4.4805-6.8008-7.3164-11.805-7.3164-5.0078 0-9.582 2.8359-11.809 7.3164l-11.875 24.059h-0.003906c-0.35547 0.71875-1.0391 1.2148-1.8281 1.3281l-26.566 3.8555-0.003906 0.003906c-4.9648 0.72266-9.0938 4.2031-10.641 8.9766-1.5508 4.7734-0.25391 10.016 3.3398 13.516l19.207 18.695v0.003906c0.57422 0.55859 0.83984 1.3633 0.71094 2.1523l-4.5469 26.441c-0.85938 4.9492 1.1719 9.9609 5.2383 12.914 4.0625 2.9531 9.457 3.3398 13.898 0.98828l23.754-12.488v0.003906c0.70703-0.375 1.5508-0.375 2.2539 0l23.754 12.488v-0.003906c4.4453 2.3359 9.8281 1.9453 13.887-1.0039 4.0586-2.9531 6.0938-7.9531 5.2422-12.898l-4.5156-26.41c-0.12891-0.78906 0.12891-1.5938 0.69922-2.1562l19.219-18.695c3.5938-3.5039 4.8906-8.7422 3.3398-13.516-1.5508-4.7773-5.6758-8.2578-10.645-8.9805zm-0.20703 14.762-19.219 18.695c-3.1016 3.0352-4.5195 7.3984-3.7891 11.68l4.5352 26.441 0.003906-0.003906c0.16016 0.91406-0.21094 1.8398-0.96094 2.3828-0.75 0.54297-1.7461 0.61328-2.5625 0.17578l-23.754-12.477c-3.8398-2.0273-8.4336-2.0273-12.27 0l-23.754 12.477c-0.82031 0.4375-1.8125 0.36719-2.5625-0.17578-0.75-0.54297-1.125-1.4688-0.96094-2.3828l4.5352-26.449c0.73047-4.2773-0.69141-8.6406-3.7969-11.668l-19.207-18.695v-0.003906c-0.67188-0.64062-0.91406-1.6094-0.625-2.4922 0.28516-0.88281 1.0508-1.5234 1.9727-1.6484l26.566-3.8672c4.2812-0.61719 7.9883-3.3008 9.9102-7.1758l11.875-24.059c0.41406-0.82031 1.2578-1.3398 2.1797-1.3398s1.7656 0.51953 2.1797 1.3398l11.879 24.059c1.918 3.8906 5.6328 6.5859 9.9258 7.2031l26.566 3.8672h0.003906c0.91797 0.12891 1.6836 0.76953 1.9727 1.6523 0.28516 0.87891 0.042968 1.8477-0.625 2.4922z"></path>
  <path d="m585.65 205.93h-284.43c-4.668 0.003906-9.1406 1.8633-12.441 5.1602-3.3008 3.3008-5.1562 7.7773-5.1641 12.445v112.66h-69.262c-4.668 0.003907-9.1445 1.8633-12.445 5.1602-3.3047 3.3008-5.1602 7.7773-5.168 12.445v222.66c0.003906 4.668 1.8633 9.1445 5.1641 12.445 3.3008 3.3008 7.7812 5.1562 12.449 5.1562h284.43c4.668 0 9.1445-1.8555 12.449-5.1562 3.3008-3.3008 5.1602-7.7773 5.1641-12.445v-112.66h69.266-0.003906c4.6602-0.003906 9.1289-1.8555 12.43-5.1445s5.1641-7.75 5.1875-12.41v-222.71c-0.007813-4.6719-1.8633-9.1484-5.168-12.449-3.3008-3.2969-7.7773-5.1523-12.449-5.1562zm-284.43 10.754h284.43c3.8047 0 6.8906 3.0859 6.8906 6.8906v38.762h-298.15v-38.801c0.019531-3.7695 3.0625-6.8164 6.8281-6.8516zm-86.867 130.26h284.43c3.8047 0 6.8867 3.0859 6.8867 6.8906v38.762h-298.15v-38.801c0.019532-3.7695 3.0703-6.8242 6.8398-6.8516zm291.27 229.51v0.003907c0 1.8242-0.72656 3.5781-2.0195 4.8711-1.293 1.2891-3.043 2.0156-4.8711 2.0156h-284.38c-3.8047 0-6.8906-3.082-6.8906-6.8867v-173.18h298.15zm80.02-123.41-69.246 0.003906v-99.246c-0.007813-4.668-1.8672-9.1445-5.168-12.445-3.3008-3.2969-7.7773-5.1562-12.445-5.1602h-204.41v-63.133h298.15v173.18c-0.050781 3.7617-3.1055 6.7891-6.8711 6.8008z"></path>
  <path d="m568.42 230.54c4.5195 1.3867 7.0586 6.1758 5.6719 10.695-1.3867 4.5195-6.1758 7.0586-10.695 5.6719-4.5195-1.3867-7.0586-6.1758-5.6719-10.695 1.3867-4.5195 6.1758-7.0586 10.695-5.6719"></path>
  <path d="m535.29 247.3c3.4609 0 6.5859-2.0859 7.9102-5.2852s0.58984-6.8789-1.8555-9.3281c-2.4492-2.4492-6.1328-3.1797-9.332-1.8555s-5.2852 4.4453-5.2852 7.9062c0 4.7305 3.8359 8.5625 8.5625 8.5625z"></path>
  <path d="m504.66 247.3c3.4648 0 6.5859-2.0859 7.9102-5.2852 1.3242-3.1992 0.59375-6.8789-1.8555-9.3281-2.4492-2.4492-6.1328-3.1797-9.3281-1.8555-3.1992 1.3242-5.2852 4.4453-5.2852 7.9062 0 4.7305 3.832 8.5625 8.5586 8.5625z"></path>
 </g>

      </g>
      </svg>