<svg xmlns="http://www.w3.org/2000/svg"  viewBox="0 0 32 32" width="50px" height="50px"><path d="M 16 3 C 8.8321388 3 3 8.832144 3 16 C 3 23.167856 8.8321388 29 16 29 C 23.167861 29 29 23.167856 29 16 C 29 8.832144 23.167861 3 16 3 z M 16 5 C 22.086982 5 27 9.9130223 27 16 C 27 22.086978 22.086982 27 16 27 C 9.9130183 27 5 22.086978 5 16 C 5 9.9130223 9.9130183 5 16 5 z M 11.160156 9.0097656 C 10.460156 9.0097656 10.009766 9.5203906 10.009766 10.150391 C 10.009766 10.780391 10.450859 11.289062 11.130859 11.289062 L 11.140625 11.289062 L 11.150391 11.289062 C 11.860391 11.289062 12.300781 10.780391 12.300781 10.150391 C 12.280781 9.5003906 11.860156 9.0097656 11.160156 9.0097656 z M 11.140625 12.429688 C 10.509065 12.429688 10 12.938752 10 13.570312 L 10 19.859375 C 10 20.490935 10.509065 21 11.140625 21 L 11.150391 21 C 11.781951 21 12.289062 20.490935 12.289062 19.859375 L 12.289062 13.570312 C 12.289062 12.938752 11.781951 12.429688 11.150391 12.429688 L 11.140625 12.429688 z M 15.169922 12.429688 C 14.529922 12.429688 14.009766 12.949844 14.009766 13.589844 L 14.009766 19.859375 C 14.009766 20.489375 14.520391 21 15.150391 21 C 15.780391 21 16.289063 20.489375 16.289062 19.859375 L 16.289062 16.560547 C 16.289062 15.690547 16.88 14.870234 17.75 14.740234 C 18.81 14.590234 19.720703 15.399453 19.720703 16.439453 L 19.720703 19.869141 C 19.720703 20.499141 20.229375 21.009766 20.859375 21.009766 C 21.489375 21.009766 22 20.499141 22 19.869141 L 22 15.769531 L 22 15.759766 C 22 14.109766 20.810156 12.599453 19.160156 12.439453 C 17.970156 12.329453 16.909062 12.879531 16.289062 13.769531 L 16.289062 13.550781 C 16.289062 12.930781 15.789922 12.429688 15.169922 12.429688 z"/></svg>